<!--?xml version="1.0" encoding="utf-8"?-->
<!-- Generator: Adobe Illustrator 22.1.0, SVG Export Plug-In . SVG Version: 6.00 Build 0)  -->
<svg version="1.1" id="_x34_" xmlns="http://www.w3.org/2000/svg" xmlns:xlink="http://www.w3.org/1999/xlink" x="0px" y="0px" viewBox="0 0 800 604" style="width: 516px;" xml:space="preserve">
<style type="text/css">
	.st0{fill:#FFFFFF;}
</style>
<g>
	<path class="st0" d="M246.1,482.8c70.1-4,96.7-2.7,114.9,5.8c24.6,11.5,53.3,11.5,77.9,0c18.2-8.6,44.9-9.8,114.9-5.8
		C706.1,491.4,780,381.6,780,256.7c0-60.7-29.7-140.1-90.8-179.9C604.6,21.6,516.3,15.1,400,15.1s-204.6,6.5-289.2,61.6
		C49.7,116.6,20,196,20,256.7C20,381.6,93.9,491.4,246.1,482.8z" style="fill: rgb(255, 250, 250);"></path>
	<ellipse class="st0" cx="427.7" cy="536.7" rx="28.8" ry="19.6" style="fill: rgb(255, 250, 250);"></ellipse>
	<path class="st0" d="M446.4,578.3c0,5.8,5.3,10.5,15.5,10.5c10.2,0,15.5-4.7,15.5-10.5c0-5.8-5.3-10.5-15.5-10.5
		C451.8,567.8,446.4,572.5,446.4,578.3z" style="fill: rgb(255, 250, 250);"></path>
</g>
</svg>
